<?xml version="1.0" encoding="UTF-8" standalone="no"?>
<svg
   id="Look"
   viewBox="0 0 48 48"
   version="1.1"
   sodipodi:docname="navLook_dark.svg"
   width="48"
   height="48"
   inkscape:version="1.2 (dc2aedaf03, 2022-05-15)"
   xmlns:inkscape="http://www.inkscape.org/namespaces/inkscape"
   xmlns:sodipodi="http://sodipodi.sourceforge.net/DTD/sodipodi-0.dtd"
   xmlns="http://www.w3.org/2000/svg"
   xmlns:svg="http://www.w3.org/2000/svg">
  <sodipodi:namedview
     id="namedview9"
     pagecolor="#ffffff"
     bordercolor="#666666"
     borderopacity="1.0"
     inkscape:showpageshadow="2"
     inkscape:pageopacity="0.0"
     inkscape:pagecheckerboard="0"
     inkscape:deskcolor="#d1d1d1"
     showgrid="false"
     inkscape:zoom="21.395833"
     inkscape:cx="21.055501"
     inkscape:cy="23.976631"
     inkscape:window-width="3440"
     inkscape:window-height="1369"
     inkscape:window-x="-8"
     inkscape:window-y="-8"
     inkscape:window-maximized="1"
     inkscape:current-layer="Look" />
  <defs
     id="defs4">
    <style
       id="style2">
      .cls-1 {
        fill: #9e9e9e;
      }
    </style>
  </defs>
  <path
     class="cls-1"
     d="m 31.6,24.96 2.09,1.03 c 1.15,-0.7 1.88,-1.91 1.97,-3.25 0,-1.57 -1.23,-3.04 -3.46,-4.14 -2.58,-1.16 -5.39,-1.73 -8.22,-1.67 -2.83,-0.06 -5.64,0.51 -8.22,1.67 -2.23,1.1 -3.46,2.57 -3.46,4.14 0.09,1.34 0.83,2.56 1.98,3.26 L 16.38,24.97 19,32.01 7.94,29.09 10.17,27.96 C 9.94,27.74 9.71,27.5 9.51,27.25 8.75,26.38 8.32,25.28 8.3,24.12 8.33,22.97 8.76,21.87 9.51,21 c 0.93,-1.08 2.07,-1.96 3.34,-2.58 1.58,-0.8 3.26,-1.39 4.99,-1.76 2.01,-0.44 4.07,-0.66 6.13,-0.65 2.06,0 4.11,0.21 6.13,0.65 1.73,0.36 3.41,0.96 4.99,1.76 1.28,0.63 2.42,1.5 3.34,2.58 0.76,0.87 1.18,1.97 1.21,3.12 -0.03,1.15 -0.45,2.25 -1.21,3.12 -0.2,0.25 -0.42,0.49 -0.66,0.71 l 2.24,1.15 -11.06,2.92 2.62,-7.04 z m -12,1.53 c 0.09,0.41 0.29,0.77 0.58,1.05 0.24,0.23 0.5,0.43 0.77,0.61 0.85,0.55 1.83,0.84 2.84,0.84 2.88,0 5.22,-2.34 5.22,-5.22 v -3.33 c 0,-0.55 -0.45,-1 -1,-1 -0.55,0 -1,0.45 -1,1 v 0.45 c 0,0.06 -0.05,0.12 -0.12,0.12 -0.07,0 -0.12,-0.05 -0.12,-0.12 v -0.67 c 0,-0.55 -0.45,-1 -1,-1 -0.55,0 -1,0.45 -1,1 v 0.67 c 0,0.06 -0.05,0.12 -0.12,0.12 -0.07,0 -0.12,-0.05 -0.12,-0.12 v -0.9 c 0,-0.55 -0.45,-1 -1,-1 -0.55,0 -1,0.45 -1,1 v 0.9 c 0,0.06 -0.05,0.12 -0.12,0.12 -0.07,0 -0.12,-0.05 -0.12,-0.12 v -0.9 c 0,-0.55 -0.45,-1 -1,-1 -0.55,0 -1,0.45 -1,1 v 3.95 c 0,0.06 -0.05,0.12 -0.12,0.12 -0.07,0 -0.12,-0.05 -0.12,-0.12 v -1.61 l -0.65,0.46 c -0.33,0.23 -0.49,0.64 -0.4,1.04 l 0.59,2.65 z"
     id="path6"
     style="fill:#9e9e9e;fill-opacity:1" />
</svg>
